<svg width="43" height="43" viewBox="0 0 43 43" fill="none" xmlns="http://www.w3.org/2000/svg">
<path d="M42.1949 21.4999C42.1949 10.0763 32.9236 0.804948 21.4999 0.804948C10.0763 0.804948 0.804948 10.0763 0.804948 21.4999C0.804948 32.9236 10.0763 42.1949 21.4999 42.1949" stroke="white" stroke-width="1.59476" stroke-linecap="round" stroke-linejoin="round"/>
<path d="M13.2219 2.87437H15.2914C11.2558 14.9602 11.2558 28.0395 15.2914 40.1254H13.2219" stroke="white" stroke-width="1.59476" stroke-linecap="round" stroke-linejoin="round"/>
<path d="M27.7085 2.87437C29.7159 8.91731 30.7299 15.2086 30.7299 21.4999" stroke="white" stroke-width="1.59476" stroke-linecap="round" stroke-linejoin="round"/>
<path d="M2.8745 29.7778V27.7083C8.91743 29.7158 15.2087 30.7298 21.5 30.7298" stroke="white" stroke-width="1.59476" stroke-linecap="round" stroke-linejoin="round"/>
<path d="M2.8745 15.2917C14.9604 11.2562 28.0396 11.2562 40.1255 15.2917" stroke="white" stroke-width="1.59476" stroke-linecap="round" stroke-linejoin="round"/>
<path d="M34.3309 40.9531C37.9883 40.9531 40.9533 37.9882 40.9533 34.3307C40.9533 30.6733 37.9883 27.7083 34.3309 27.7083C30.6734 27.7083 27.7085 30.6733 27.7085 34.3307C27.7085 37.9882 30.6734 40.9531 34.3309 40.9531Z" stroke="white" stroke-width="1.59476" stroke-linecap="round" stroke-linejoin="round"/>
<path d="M42.195 42.1949L40.1255 40.1254" stroke="white" stroke-width="1.59476" stroke-linecap="round" stroke-linejoin="round"/>
</svg>
