<svg width="61" height="71" viewBox="0 0 61 71" fill="none" xmlns="http://www.w3.org/2000/svg">
<path d="M27.6406 53.25H31.4531V62.125H27.6406V53.25Z" fill="#617E95"/>
<path d="M27.6406 53.25V57.013H28.5938C29.0993 57.013 29.5842 57.2468 29.9417 57.6629C30.2992 58.079 30.5 58.6433 30.5 59.2317V62.125H31.4531V53.25H27.6406Z" fill="#4C6D86"/>
<path d="M31.4531 55.4688H27.6406C27.1351 55.4688 26.6502 55.235 26.2927 54.8189C25.9352 54.4028 25.7344 53.8384 25.7344 53.25V48.8125H33.3594V53.25C33.3594 53.8384 33.1585 54.4028 32.801 54.8189C32.4436 55.235 31.9587 55.4688 31.4531 55.4688Z" fill="#4C6D86"/>
<path d="M30.5 48.8125H25.7344V52.5755H29.2609C29.5896 52.5755 29.9047 52.7274 30.1371 52.9979C30.3695 53.2684 30.5 53.6352 30.5 54.0177V54.0266C30.5 54.4091 30.3695 54.7759 30.1371 55.0463C29.9047 55.3168 29.5896 55.4688 29.2609 55.4688H31.4531C31.9587 55.4688 32.4436 55.235 32.801 54.8189C33.1585 54.4028 33.3594 53.8384 33.3594 53.25V48.8125H30.5Z" fill="#41667D"/>
<path d="M36.2188 22.862V9.5495C36.2188 8.96105 36.4196 8.3967 36.7771 7.98061C37.1346 7.56451 37.6194 7.33075 38.125 7.33075C38.6306 7.33075 39.1154 7.56451 39.4729 7.98061C39.8304 8.3967 40.0312 8.96105 40.0312 9.5495V22.862H36.2188ZM19.0625 22.862V9.5495C19.0625 8.96105 19.2633 8.3967 19.6208 7.98061C19.9783 7.56451 20.4632 7.33075 20.9688 7.33075C21.4743 7.33075 21.9592 7.56451 22.3167 7.98061C22.6742 8.3967 22.875 8.96105 22.875 9.5495V22.862H19.0625Z" fill="#D5E5F1"/>
<path d="M20.9688 7.33075C20.7991 7.33075 20.6485 7.39509 20.4922 7.44169C21.3081 7.69241 21.9219 8.52 21.9219 9.5495V16.6406C21.9219 17.2291 21.721 17.7934 21.3635 18.2095C21.0061 18.6256 20.5212 18.8594 20.0156 18.8594H19.0625V23.2969H22.875V9.5495C22.875 8.96105 22.6742 8.3967 22.3167 7.98061C21.9592 7.56451 21.4743 7.33075 20.9688 7.33075ZM38.125 7.33075C37.9553 7.33075 37.8048 7.39509 37.6484 7.44169C38.4643 7.69241 39.0781 8.52 39.0781 9.5495V16.6406C39.0781 17.2291 38.8773 17.7934 38.5198 18.2095C38.1623 18.6256 37.6774 18.8594 37.1719 18.8594H36.2188V23.2969H40.0312V9.5495C40.0312 8.96105 39.8304 8.3967 39.4729 7.98061C39.1154 7.56451 38.6306 7.33075 38.125 7.33075Z" fill="#B0C4DA"/>
<path d="M45.75 19.9688H13.3438C12.8382 19.9688 12.3533 20.2025 11.9958 20.6186C11.6383 21.0347 11.4375 21.5991 11.4375 22.1875V31.7104C11.4374 33.484 11.8939 35.2171 12.7481 36.6859C13.6023 38.1547 14.815 39.2919 16.2298 39.9508L19.7697 41.5993C20.4941 41.9344 20.9688 42.7509 20.9688 43.6583V48.8125C20.9688 49.4009 21.1696 49.9653 21.5271 50.3814C21.8846 50.7975 22.3694 51.0312 22.875 51.0312H36.2188C36.7243 51.0312 37.2092 50.7975 37.5667 50.3814C37.9242 49.9653 38.125 49.4009 38.125 48.8125V43.6583C38.125 42.7509 38.5997 41.9344 39.324 41.5993L42.8639 39.9508C44.2784 39.2914 45.4909 38.1541 46.345 36.6854C47.1991 35.2167 47.6558 33.4839 47.6562 31.7104V22.1875C47.6562 21.5991 47.4554 21.0347 47.0979 20.6186C46.7404 20.2025 46.2556 19.9688 45.75 19.9688Z" fill="#4C6D86"/>
<path d="M45.75 19.9688H42.8906C43.3962 19.9688 43.8811 20.2025 44.2385 20.6186C44.596 21.0347 44.7969 21.5991 44.7969 22.1875V31.7104C44.797 33.484 44.3405 35.2171 43.4863 36.6859C42.6321 38.1547 41.4194 39.2919 40.0046 39.9508L36.4647 41.5993C36.1109 41.7638 35.8077 42.0479 35.5939 42.4149C35.3802 42.7819 35.2659 43.215 35.2656 43.6583V48.8125C35.2656 49.4009 35.0648 49.9653 34.7073 50.3814C34.3498 50.7975 33.8649 51.0312 33.3594 51.0312H36.2188C36.7243 51.0312 37.2092 50.7975 37.5667 50.3814C37.9242 49.9653 38.125 49.4009 38.125 48.8125V43.6583C38.125 42.7509 38.5997 41.9344 39.324 41.5993L42.8639 39.9508C44.2784 39.2914 45.4909 38.1541 46.345 36.6854C47.1991 35.2167 47.6558 33.4839 47.6562 31.7104V22.1875C47.6562 21.5991 47.4554 21.0347 47.0979 20.6186C46.7404 20.2025 46.2556 19.9688 45.75 19.9688Z" fill="#41667D"/>
<path d="M27.4635 44.1043L29.8539 36.8534L26.2949 35.2648L28.4776 25.5445L34.7053 28.3268L31.7678 34.1443L34.4365 35.3358L27.4635 44.1043Z" fill="#FFCC5C" stroke="#FFCC5C" stroke-width="0.5" stroke-miterlimit="10" stroke-linecap="round" stroke-linejoin="round"/>
</svg>
