<svg width="65" height="65" viewBox="0 0 65 65" fill="none" xmlns="http://www.w3.org/2000/svg">
<path d="M31.122 51.4583C29.3447 51.4669 27.6282 50.8116 26.3088 49.6208C24.9893 48.43 24.162 46.7895 23.9888 45.0206L22.1135 26.2767C22.0641 25.7818 21.8416 25.3203 21.4852 24.9734C21.1288 24.6265 20.6614 24.4166 20.1654 24.3805C19.6694 24.3445 19.1766 24.4847 18.7738 24.7764C18.371 25.0681 18.0842 25.4926 17.9637 25.9751L16.9375 30.08C16.5731 31.5455 15.7284 32.8469 14.5382 33.7764C13.3479 34.7059 11.8806 35.21 10.3704 35.2083H8.12496C7.40666 35.2083 6.71779 34.923 6.20988 34.4151C5.70197 33.9072 5.41663 33.2183 5.41663 32.5C5.41663 31.7817 5.70197 31.0928 6.20988 30.5849C6.71779 30.077 7.40666 29.7917 8.12496 29.7917H10.3704C10.6727 29.7921 10.9664 29.6913 11.2047 29.5053C11.443 29.3193 11.6121 29.0588 11.6849 28.7654L12.7111 24.6606C13.1409 22.9409 14.1638 21.428 15.5997 20.3884C17.0355 19.3489 18.7922 18.8495 20.5602 18.9781C22.3281 19.1068 23.994 19.8553 25.2642 21.0917C26.5344 22.3282 27.3276 23.9732 27.5038 25.7371L29.379 44.4812C29.4241 44.9117 29.6279 45.31 29.9506 45.5985C30.2733 45.8869 30.6919 46.0449 31.1247 46.0416C31.5576 46.0383 31.9737 45.874 32.292 45.5806C32.6103 45.2872 32.8079 44.8859 32.8464 44.4547L34.867 20.2411C35.0147 18.4663 35.8056 16.8066 37.091 15.574C38.3765 14.3414 40.0679 13.6209 41.8473 13.5478C43.6267 13.4747 45.3715 14.0541 46.7537 15.1771C48.1358 16.3001 49.0602 17.8893 49.3529 19.646L50.8552 28.6623C50.9076 28.9785 51.0707 29.2656 51.3154 29.4726C51.5601 29.6795 51.8704 29.7926 52.1909 29.7917H56.875C57.5933 29.7917 58.2821 30.077 58.79 30.5849C59.298 31.0929 59.5833 31.7817 59.5833 32.5C59.5833 33.2183 59.298 33.9072 58.79 34.4151C58.2821 34.923 57.5933 35.2084 56.875 35.2084H52.1909C50.5877 35.2118 49.0356 34.6448 47.8121 33.6088C46.5886 32.5729 45.7736 31.1355 45.5127 29.5537L44.0104 20.5373C43.9346 20.0829 43.6954 19.6719 43.3379 19.3814C42.9804 19.0909 42.5291 18.941 42.0688 18.9599C41.6085 18.9787 41.171 19.165 40.8384 19.4837C40.5058 19.8024 40.301 20.2316 40.2626 20.6907L38.2446 44.9017C38.0877 46.6856 37.2705 48.3466 35.953 49.5594C34.6355 50.7722 32.9127 51.4494 31.122 51.4583Z" fill="#0C5DAD"/>
</svg>
