<svg width="51" height="51" viewBox="0 0 51 51" fill="none" xmlns="http://www.w3.org/2000/svg">
<g clip-path="url(#clip0_0_124)">
<path d="M31.2216 0.6375V4.15172H19.7784V0.6375C19.7784 0.286875 20.0653 0 20.4159 0H30.5761C30.9427 0 31.2216 0.286875 31.2216 0.6375Z" fill="#E1E3E8"/>
<path d="M38.9512 7.36312V46.6012C38.9512 49.0317 36.9829 51 34.5525 51H16.4554C14.025 51 12.0487 49.0317 12.0487 46.6012V7.36312C12.0487 4.93266 14.025 2.95641 16.4554 2.95641H34.5604C36.9829 2.95641 38.9512 4.93266 38.9512 7.36312Z" fill="#3A556A"/>
<path d="M25.5 2.95641V15.4275H12.0487V7.36312C12.0487 4.93266 14.025 2.95641 16.4554 2.95641H25.5Z" fill="#4BC8F1"/>
<path d="M38.9513 7.36312V15.4275H25.5V2.95641H34.5525C36.983 2.95641 38.9513 4.93266 38.9513 7.36312Z" fill="#3EBEDB"/>
<path d="M38.9513 15.4275V46.6013C38.9513 49.0317 36.983 51 34.5525 51H25.5V15.4275H38.9513Z" fill="#334D5E"/>
<path d="M27.6835 19.8262L19.6829 32.1858H25.253L21.7388 42.7922L31.3252 29.2533H25.5L27.6835 19.8262Z" fill="#E1E3E8"/>
</g>
<defs>
<clipPath id="clip0_0_124">
<rect width="51" height="51" fill="white"/>
</clipPath>
</defs>
</svg>
