<svg width="39" height="58" viewBox="0 0 39 58" fill="none" xmlns="http://www.w3.org/2000/svg">
<path d="M8.72089 27.1493L17.5594 34.7937C17.7203 34.9329 17.8327 35.1191 17.8804 35.3255C17.9281 35.5319 17.9087 35.748 17.8249 35.9428L9.76302 54.6879C9.67348 54.8963 9.65772 55.1286 9.71832 55.347C9.77892 55.5653 9.9123 55.757 10.0967 55.8906C10.2812 56.0243 10.5058 56.0921 10.7341 56.083C10.9624 56.074 11.1808 55.9886 11.3539 55.8407L34.993 35.6244C35.098 35.5346 35.1832 35.4245 35.2434 35.3008C35.3036 35.177 35.3375 35.0424 35.3431 34.9051C35.3486 34.7678 35.3257 34.6309 35.2756 34.5028C35.2256 34.3747 35.1496 34.2582 35.0522 34.1604L25.3436 24.4104C25.2056 24.2718 25.1113 24.0963 25.0723 23.9054C25.0332 23.7146 25.051 23.5165 25.1236 23.3355L32.4531 5.04724C32.539 4.83315 32.5479 4.59626 32.4784 4.37641C32.4088 4.15657 32.265 3.96717 32.0712 3.84007C31.8774 3.71297 31.6453 3.65592 31.414 3.67851C31.1827 3.7011 30.9664 3.80196 30.8013 3.96413L8.67436 25.6808C8.57552 25.7778 8.49792 25.8939 8.44639 26.022C8.39486 26.15 8.37052 26.2873 8.37489 26.4251C8.37926 26.5629 8.41224 26.6983 8.47177 26.8229C8.5313 26.9475 8.61611 27.0586 8.72089 27.1493Z" fill="#F9A242"/>
<path d="M35.0522 34.1604L25.344 24.4104C25.2059 24.2718 25.1115 24.0963 25.0723 23.9054C25.0332 23.7145 25.051 23.5164 25.1235 23.3353L32.4533 5.04724C32.5392 4.83315 32.5481 4.59626 32.4786 4.37641C32.409 4.15657 32.2652 3.96717 32.0714 3.84007C31.8775 3.71297 31.6455 3.65592 31.4142 3.67851C31.1829 3.7011 30.9666 3.80196 30.8015 3.96413L21.7341 12.8635L17.5371 23.3353C17.4645 23.5163 17.4467 23.7144 17.4858 23.9053C17.5249 24.0963 17.6192 24.2718 17.7573 24.4104L27.466 34.1604C27.5633 34.2582 27.6394 34.3747 27.6895 34.5029C27.7395 34.631 27.7625 34.7679 27.7569 34.9052C27.7514 35.0425 27.7174 35.1772 27.6572 35.301C27.597 35.4247 27.5117 35.5349 27.4068 35.6246L12.467 48.4011L9.76296 54.6879C9.67331 54.8963 9.65749 55.1287 9.71808 55.3472C9.77866 55.5656 9.91208 55.7573 10.0966 55.891C10.2811 56.0247 10.5058 56.0925 10.7342 56.0834C10.9625 56.0742 11.181 55.9887 11.3541 55.8407L34.9932 35.6244C35.0982 35.5346 35.1834 35.4245 35.2436 35.3008C35.3038 35.177 35.3377 35.0424 35.3433 34.9051C35.3488 34.7678 35.3259 34.6309 35.2758 34.5028C35.2258 34.3747 35.1497 34.2582 35.0524 34.1604H35.0522Z" fill="#F48A31"/>
</svg>
