<svg width="41" height="41" viewBox="0 0 41 41" fill="none" xmlns="http://www.w3.org/2000/svg">
<path d="M39.5698 41H7.15116C3.20372 41 0 37.7963 0 33.8488V1.43023C0 0.648372 0.648372 0 1.43023 0C2.21209 0 2.86047 0.648372 2.86047 1.43023V33.8488C2.86047 36.2135 4.78651 38.1395 7.15116 38.1395H39.5698C40.3516 38.1395 41 38.7879 41 39.5698C41 40.3516 40.3516 41 39.5698 41Z" fill="white"/>
<path d="M7.15084 31.4648C6.82665 31.4648 6.4834 31.3503 6.21642 31.1215C5.62526 30.6066 5.54898 29.7103 6.06386 29.1001L14.8169 18.8787C15.7704 17.7727 17.1434 17.1052 18.5927 17.048C20.042 17.0099 21.4722 17.5438 22.502 18.5736L24.3136 20.3852C24.7903 20.862 25.4006 21.0908 26.0871 21.0908C26.7545 21.0717 27.3648 20.7666 27.8034 20.2517L36.5564 10.0304C37.0713 9.43922 37.9675 9.36294 38.5778 9.87783C39.1689 10.3927 39.2452 11.289 38.7303 11.8992L29.9773 22.1206C29.0238 23.2266 27.6508 23.8941 26.2015 23.9513C24.7331 23.9894 23.322 23.4555 22.2922 22.4257L20.4996 20.6141C20.0229 20.1373 19.3936 19.8894 18.7262 19.9085C18.0587 19.9276 17.4485 20.2327 17.0099 20.7476L8.25689 30.969C7.95177 31.2931 7.55131 31.4648 7.15084 31.4648Z" fill="white"/>
</svg>
