<svg width="43" height="45" viewBox="0 0 43 45" fill="none" xmlns="http://www.w3.org/2000/svg">
<path d="M2.66309 12.5985L21.4893 23.4934L40.1877 12.6624" stroke="white" stroke-width="2" stroke-linecap="round" stroke-linejoin="round"/>
<path d="M21.4893 42.8101V23.472" stroke="white" stroke-width="2" stroke-linecap="round" stroke-linejoin="round"/>
<path d="M17.0759 2.0234L5.69057 8.35576C3.11074 9.78426 1 13.3661 1 16.3084V28.3547C1 31.2969 3.11074 34.8788 5.69057 36.3073L17.0759 42.6396C19.5065 43.9829 23.4935 43.9829 25.9241 42.6396L37.3094 36.3073C39.8892 34.8788 42 31.2969 42 28.3547V16.3084C42 13.3661 39.8892 9.78426 37.3094 8.35576L25.9241 2.0234C23.4722 0.658866 19.5065 0.658866 17.0759 2.0234Z" stroke="white" stroke-width="2" stroke-linecap="round" stroke-linejoin="round"/>
<path d="M32.1497 24.9646V17.1612L11.9163 5.47729" stroke="white" stroke-width="2" stroke-linecap="round" stroke-linejoin="round"/>
</svg>
