<svg width="41" height="41" viewBox="0 0 41 41" fill="none" xmlns="http://www.w3.org/2000/svg">
<path d="M20.5 41C9.19163 41 0 31.8084 0 20.5C0 9.19163 9.19163 0 20.5 0C31.8084 0 41 9.19163 41 20.5C41 31.8084 31.8084 41 20.5 41ZM20.5 2.86047C10.7744 2.86047 2.86047 10.7744 2.86047 20.5C2.86047 30.2256 10.7744 38.1395 20.5 38.1395C30.2256 38.1395 38.1395 30.2256 38.1395 20.5C38.1395 10.7744 30.2256 2.86047 20.5 2.86047Z" fill="white"/>
<path d="M20.5001 23.8372C19.7182 23.8372 19.0698 23.1889 19.0698 22.407V12.8721C19.0698 12.0903 19.7182 11.4419 20.5001 11.4419C21.2819 11.4419 21.9303 12.0903 21.9303 12.8721V22.407C21.9303 23.1889 21.2819 23.8372 20.5001 23.8372Z" fill="white"/>
<path d="M20.5 30.0346C20.2521 30.0346 20.0042 29.9774 19.7753 29.8821C19.5465 29.7867 19.3367 29.6532 19.146 29.4816C18.9744 29.2909 18.8409 29.1002 18.7456 28.8523C18.6502 28.6235 18.593 28.3756 18.593 28.1277C18.593 27.8798 18.6502 27.6319 18.7456 27.403C18.8409 27.1742 18.9744 26.9644 19.146 26.7737C19.3367 26.6021 19.5465 26.4686 19.7753 26.3732C20.233 26.1826 20.767 26.1826 21.2246 26.3732C21.4535 26.4686 21.6633 26.6021 21.8539 26.7737C22.0256 26.9644 22.1591 27.1742 22.2544 27.403C22.3498 27.6319 22.407 27.8798 22.407 28.1277C22.407 28.3756 22.3498 28.6235 22.2544 28.8523C22.1591 29.1002 22.0256 29.2909 21.8539 29.4816C21.6633 29.6532 21.4535 29.7867 21.2246 29.8821C20.9958 29.9774 20.7479 30.0346 20.5 30.0346Z" fill="white"/>
</svg>
