<svg width="69" height="69" viewBox="0 0 69 69" fill="none" xmlns="http://www.w3.org/2000/svg">
<path d="M44.4475 55.4444C44.4504 57.31 43.9558 59.1427 43.0148 60.7536C42.0738 62.3645 40.7204 63.6954 39.0939 64.6093C37.4674 65.5231 35.6267 65.9869 33.7614 65.9527C31.8961 65.9185 30.0736 65.3876 28.4817 64.4148C26.8898 63.442 25.5861 62.0623 24.7047 60.418C23.8234 58.7737 23.3964 56.9241 23.4676 55.0599C23.5389 53.1956 24.1058 51.3841 25.1101 49.8118C26.1144 48.2396 27.5197 46.9635 29.1812 46.115V12.1325H38.7262V46.115C40.4459 46.9932 41.8899 48.3288 42.8993 49.9748C43.9087 51.6208 44.4444 53.5135 44.4475 55.4444Z" fill="#FF9472"/>
<path d="M26.3062 56.465C26.3017 58.3687 26.8158 60.2377 27.7934 61.8712C28.771 63.5048 30.1751 64.8412 31.855 65.7369C29.3061 65.2129 27.0417 63.7631 25.4992 61.6674C23.9567 59.5717 23.2454 56.9787 23.5028 54.3893C23.7601 51.7999 24.9678 49.3976 26.8926 47.6465C28.8174 45.8954 31.3228 44.9195 33.925 44.9075C35.6614 44.9017 37.3715 45.3317 38.8987 46.1581C38.2162 46.0324 37.5224 45.9794 36.8287 46C34.0479 46 31.3801 47.1007 29.4084 49.0616C27.4367 51.0225 26.3214 53.6842 26.3062 56.465Z" fill="#D37979"/>
<path d="M33.9682 61.9994L33.5657 59.8862L34.6294 59.685C38.295 58.9662 37.9357 56.235 37.9213 56.12L37.7632 55.0562L39.8907 54.7256L40.0488 55.8037C40.25 57.5 39.5744 60.9212 35.0319 61.8125L33.9682 61.9994Z" fill="white"/>
<path d="M38.7263 7.1875V12.1325H29.1813V7.1875C29.1851 5.99155 29.6618 4.84566 30.5075 3.99999C31.3532 3.15431 32.4991 2.67754 33.695 2.67375H34.2125C35.4085 2.67754 36.5544 3.15431 37.4 3.99999C38.2457 4.84566 38.7225 5.99155 38.7263 7.1875Z" fill="#EDEEF0"/>
</svg>
