<svg width="40" height="55" viewBox="0 0 40 55" fill="none" xmlns="http://www.w3.org/2000/svg">
<path d="M2.88092 24.4369H7.12714V39.3943C7.12714 42.8843 8.3776 43.5907 9.90294 40.9731L20.3055 23.1073C21.5835 20.926 21.0475 19.1187 19.1099 19.1187H14.8637V4.1613C14.8637 0.671236 13.6132 -0.0350859 12.0879 2.58246L1.68539 20.4482C0.42114 22.6503 0.95707 24.4369 2.88092 24.4369Z" stroke="white" stroke-width="2" stroke-miterlimit="10" stroke-linecap="round" stroke-linejoin="round"/>
<path d="M20.8805 35.4366H25.1267V50.394C25.1267 53.8841 26.3772 54.5904 27.9025 51.9728L38.305 34.1071C39.583 31.9258 39.0471 30.1184 37.1095 30.1184H32.8633V15.161C32.8633 11.671 31.6128 10.9646 30.0874 13.5822L19.6849 31.448C18.4207 33.65 18.9566 35.4366 20.8805 35.4366Z" stroke="white" stroke-width="2" stroke-miterlimit="10" stroke-linecap="round" stroke-linejoin="round"/>
</svg>
