<svg width="41" height="41" viewBox="0 0 41 41" fill="none" xmlns="http://www.w3.org/2000/svg">
<path d="M31.5414 40.9553H9.4586C4.23349 40.9553 0 36.7028 0 31.4776V17.3469C0 14.7534 1.60186 11.4925 3.6614 9.8906L13.94 1.8813C17.0293 -0.521487 21.9684 -0.635905 25.1721 1.61432L36.9572 9.87153C39.2265 11.4543 41 14.8487 41 17.6139V31.4967C41 36.7028 36.7665 40.9553 31.5414 40.9553ZM15.6944 4.13153L5.41581 12.1408C4.06186 13.2087 2.86047 15.6306 2.86047 17.3469V31.4776C2.86047 35.12 5.81628 38.0948 9.4586 38.0948H31.5414C35.1837 38.0948 38.1395 35.139 38.1395 31.4967V17.6139C38.1395 15.7832 36.8237 13.2469 35.3172 12.2171L23.5321 3.9599C21.3581 2.43432 17.773 2.5106 15.6944 4.13153Z" fill="white"/>
<path d="M20.5001 33.3274C19.7182 33.3274 19.0698 32.6791 19.0698 31.8972V26.1763C19.0698 25.3944 19.7182 24.746 20.5001 24.746C21.2819 24.746 21.9303 25.3944 21.9303 26.1763V31.8972C21.9303 32.6791 21.2819 33.3274 20.5001 33.3274Z" fill="white"/>
</svg>
