<svg width="43" height="43" viewBox="0 0 43 43" fill="none" xmlns="http://www.w3.org/2000/svg">
<path d="M0.849691 15.3049V10.1423C0.849691 5.0004 5.0004 0.849691 10.1423 0.849691H15.3049" stroke="white" stroke-width="1.68702" stroke-linecap="round" stroke-linejoin="round"/>
<path d="M27.6951 0.849691H32.8577C37.9996 0.849691 42.1503 5.0004 42.1503 10.1423V15.3049" stroke="white" stroke-width="1.68702" stroke-linecap="round" stroke-linejoin="round"/>
<path d="M42.1503 29.7601V32.8576C42.1503 37.9995 37.9995 42.1503 32.8576 42.1503H29.7601" stroke="white" stroke-width="1.68702" stroke-linecap="round" stroke-linejoin="round"/>
<path d="M15.3049 42.1503H10.1423C5.0004 42.1503 0.849691 37.9996 0.849691 32.8577V27.6951" stroke="white" stroke-width="1.68702" stroke-linecap="round" stroke-linejoin="round"/>
<path d="M31.8252 16.3375V26.6627C31.8252 30.7927 29.7601 32.8578 25.6301 32.8578H17.3699C13.2399 32.8578 11.1748 30.7927 11.1748 26.6627V16.3375C11.1748 12.2075 13.2399 10.1424 17.3699 10.1424H25.6301C29.7601 10.1424 31.8252 12.2075 31.8252 16.3375Z" stroke="white" stroke-width="1.68702" stroke-linecap="round" stroke-linejoin="round"/>
<path d="M35.9552 21.5H7.04481" stroke="white" stroke-width="1.68702" stroke-linecap="round" stroke-linejoin="round"/>
</svg>
